# Created with Anim8or 0.95
# Object "object01":
# ComRec:
g mesh01
# No. points 95:
v 10.1038 48.9327 0
v 37.0479 45.0432 0.00034
v 42.7793 66.4328 0.00040
v 37.0479 87.8225 0.00035
v 21.3896 103.481 0.00020
v 0 109.212 0
v 5.05188 48.9327 -8.7501
v 18.524 45.0432 -32.0843
v 21.3896 66.4329 -37.0477
v 18.524 87.8225 -32.0843
v 10.6948 103.481 -18.5239
v -5.05188 48.9327 -8.7501
v -18.524 45.0433 -32.0846
v -21.3896 66.4329 -37.0481
v -18.524 87.8225 -32.0846
v -10.6948 103.481 -18.5241
v -10.1038 48.9327 0
v -37.0479 45.0433 -0.00035
v -42.7793 66.4329 -0.00040
v -37.0479 87.8226 -0.00034
v -21.3896 103.481 -0.00020
v -5.05188 48.9327 8.7501
v -18.524 45.0433 32.0843
v -21.3896 66.4329 37.0477
v -18.524 87.8225 32.0843
v -10.6948 103.481 18.5239
v 5.05187 48.9327 8.7501
v 18.524 45.0432 32.0846
v 21.3896 66.4329 37.0481
v 18.524 87.8225 32.0846
v 10.6948 103.481 18.5241
v 10.1038 0 0
v 5.05188 0 -8.7501
v -5.05188 0 -8.7501
v -10.1038 0 0
v -5.05188 0 8.7501
v 5.05187 0 8.7501
v 11.9312 10.7551 -1.57613
v 6.87936 10.7551 7.17398
v 6.87936 10.7551 -10.3262
v -3.22439 10.7551 -10.3262
v -8.27626 10.7551 -1.57613
v -3.22439 10.7551 7.17398
v 6.87936 19.0212 7.17398
v 11.9312 18.9891 -1.57613
v 6.87936 19.0212 -10.3262
v -3.22439 19.0856 -10.3262
v -8.27626 19.1178 -1.57613
v -3.22439 19.0856 7.17398
v 3.90972 35.2448 9.80093
v 8.9616 35.2142 1.05082
v 3.90972 35.2448 -7.69928
v -6.19402 35.3061 -7.69928
v -11.2459 35.3367 1.05082
v -6.19402 35.3061 9.80093
v 4.48199 42.103 9.27443
v 9.53209 42.0664 0.52595
v 4.48199 42.103 -8.22578
v -5.61819 42.1762 -8.22907
v -10.6683 42.2128 0.51938
v -5.61819 42.1762 9.27114
v 2.08766 41.0157 9.35848
v 1.69865 36.3536 9.71638
v -3.79909 36.3953 9.71638
v -3.40765 41.0654 9.35624
v 1.52013 50.6698 18.5284
v 1.23765 47.2844 18.7882
v -2.75453 47.3147 18.7882
v -2.47028 50.7059 18.5267
v -4.59634 41.432 -8.17207
v -5.04864 36.0358 -7.75593
v 2.88749 35.9877 -7.75593
v 3.33698 41.3745 -8.16948
v -3.62451 50.7411 -25.3839
v -3.9803 46.4962 -25.0566
v 2.26249 46.4584 -25.0566
v 2.61607 50.6958 -25.3819
v 9.44748 28.8154 0.01482
v 4.39321 28.8597 8.76705
v 4.39321 28.8597 -8.73316
v -5.71534 28.9484 -8.72891
v -10.7696 28.9927 0.02331
v -5.71534 28.9484 8.7713
v 4.79334 29.4155 7.56589
v 4.39453 34.6824 8.41871
v 8.56166 34.6572 2.25181
v 8.96245 29.379 1.39724
v 11.2337 35.1228 11.5626
v 15.0595 35.0892 5.90178
v 10.8677 39.956 12.3451
v 14.6917 39.9328 6.68599
v 13.6451 37.6139 11.6237
v 13.437 40.3596 12.0682
v 15.608 40.3443 8.85561
v 15.8164 37.597 8.4108

# No. normals 319:
vn -0.14239 -0.98639 0.08221
vn 0 -0.98639 0.16441
vn 0.14238 -0.98639 0.08221
vn 0.14239 -0.98639 -0.08221
vn 0 -0.98639 -0.16441
vn -0.14239 -0.98639 -0.08221
vn 0.84361 -0.22604 -0.48706
vn 0.00001 -0.22604 -0.97412
vn -0.84361 -0.22605 -0.48706
vn -0.84361 -0.22604 0.48706
vn -0.00001 -0.22604 0.97412
vn 0.84361 -0.22605 0.48706
vn 0.84361 0.22604 -0.48706
vn 0.00001 0.22604 -0.97412
vn -0.84361 0.22605 -0.48706
vn -0.84361 0.22604 0.48706
vn -0.00001 0.22604 0.97412
vn 0.84361 0.22605 0.48706
vn 0.65466 0.65465 -0.37796
vn 0.00001 0.65465 -0.75593
vn -0.65465 0.65466 -0.37797
vn -0.65466 0.65465 0.37796
vn -0.00001 0.65465 0.75593
vn 0.65465 0.65465 0.37797
vn 0.25598 0.95532 -0.14779
vn 0 0.95532 -0.29558
vn -0.25597 0.95532 -0.14779
vn -0.25598 0.95532 0.14779
vn 0 0.95532 0.29558
vn 0.25598 0.95532 0.14779
vn 0 -1 0
vn 0.86367 -0.07368 0.49864
vn 0.84572 -0.21526 -0.48828
vn 0 -0.14500 -0.98943
vn -0.86367 0.07368 -0.49864
vn -0.84572 0.21526 0.48828
vn 0 0.14500 0.98943
vn 0.86603 0 0.50000
vn 0.86603 0 -0.50000
vn 0 0 -1
vn -0.86603 0 -0.50000
vn -0.86603 0 0.50000
vn 0 0 1
vn 0.86548 -0.03377 0.49980
vn 0.86553 -0.03378 0.49971
vn 0.86063 -0.10974 -0.49727
vn 0.86080 -0.10974 -0.49698
vn 0 -0.07655 -0.99707
vn -0.86547 0.03400 -0.49980
vn -0.86552 0.03401 -0.49971
vn -0.86056 0.11047 0.49723
vn -0.86073 0.11047 0.49694
vn 0 0.07655 0.99707
vn 0.00029 0.07644 0.99707
vn 0.00025 0.07652 0.99707
vn 0.00058 0.07613 0.99710
vn 0.00024 0.07687 0.99704
vn 0.00654 0.68888 -0.72485
vn 0.98797 -0.07193 0.13688
vn -0.00484 -0.63875 0.76940
vn -0.99634 0.08451 0.01300
vn 0.00057 0.07650 0.99707
vn -0.00023 -0.07670 -0.99705
vn -0.00035 -0.07686 -0.99704
vn -0.00046 -0.07668 -0.99706
vn -0.00035 -0.07652 -0.99707
vn 0.00622 0.87943 0.47599
vn -0.99651 0.08263 -0.01157
vn -0.00519 -0.85559 -0.51763
vn 0.99189 -0.08968 -0.09011
vn -0.00046 -0.07651 -0.99707
vn 0.85811 0.13670 0.49493
vn 0.85708 0.14511 -0.49433
vn 0.82999 0.28721 -0.47814
vn 0.00097 0.15994 -0.98713
vn 0.00102 0.16012 -0.98710
vn -0.86589 0.01597 -0.49998
vn -0.85814 -0.13651 -0.49494
vn -0.85714 -0.14460 0.49437
vn -0.83003 -0.28707 0.47816
vn -0.00097 -0.15994 0.98713
vn -0.00102 -0.16012 0.98710
vn 0.70965 0.51895 0.47654
vn 0.94588 0.01917 0.32396
vn 0.70905 0.51934 0.47700
vn 0.94587 0.01937 0.32397
vn 0.49649 -0.79856 0.34029
vn -0.40178 -0.17594 0.89868
vn -0.47248 0.82017 -0.32263
vn 0.47322 0.17570 -0.86325
vn 0.82817 -0.02786 0.55979
vn 0.64105 -0.63125 0.43655
vn 0.12905 -0.14896 0.98039
vn -0.16549 0.97938 -0.11584
vn 0.90348 0.13450 -0.40699
vn -0.14287 -0.98974 0
vn 0.86080 -0.10974 -0.49698
vn 0.86553 -0.03378 0.49971
vn -0.14287 -0.98974 0
vn 0.84361 -0.22605 0.48706
vn 0.84361 -0.22604 -0.48706
vn 0.86603 0 -0.50000
vn 0.86602 0 0.50000
vn 0.86209 0.50675 0
vn 0.49232 0.87041 0
vn 0 1 0
vn -0.07144 -0.98974 0.12373
vn 0 -0.07655 -0.99707
vn 0.86080 -0.10974 -0.49698
vn -0.07144 -0.98974 0.12373
vn 0.00001 -0.22604 -0.97412
vn 0.84361 -0.22604 -0.48706
vn 0.86603 0 -0.50000
vn 0.00001 0 -1
vn 0.43105 0.50675 -0.74659
vn 0.24617 0.87041 -0.42636
vn 0.07143 -0.98974 0.12373
vn -0.86552 0.03401 -0.49971
vn 0 -0.07655 -0.99707
vn 0.07143 -0.98974 0.12373
vn -0.84361 -0.22605 -0.48706
vn 0.00001 -0.22604 -0.97412
vn 0.00001 0 -1
vn -0.86602 0 -0.50000
vn -0.43104 0.50675 -0.74660
vn -0.24616 0.87041 -0.42636
vn 0.14287 -0.98974 0
vn -0.86073 0.11047 0.49694
vn -0.86552 0.03401 -0.49971
vn 0.14287 -0.98974 0
vn -0.84361 -0.22604 0.48706
vn -0.84361 -0.22605 -0.48706
vn -0.86602 0 -0.50000
vn -0.86603 0 0.50000
vn -0.86209 0.50675 0
vn -0.49232 0.87041 0
vn 0.07144 -0.98974 -0.12373
vn 0 0.07655 0.99707
vn -0.86073 0.11047 0.49694
vn 0.07144 -0.98974 -0.12373
vn -0.00001 -0.22604 0.97412
vn -0.84361 -0.22604 0.48706
vn -0.86603 0 0.50000
vn -0.00001 0 1
vn -0.43105 0.50675 0.74659
vn -0.24616 0.87041 0.42636
vn -0.07144 -0.98974 -0.12373
vn 0 0.07655 0.99707
vn 0.86553 -0.03378 0.49971
vn -0.07144 -0.98974 -0.12373
vn 0.84361 -0.22605 0.48706
vn -0.00001 -0.22604 0.97412
vn -0.00001 0 1
vn 0.86602 0 0.50000
vn 0.43104 0.50675 0.74660
vn 0.24616 0.87041 0.42636
vn 0 -1 0
vn 0.84572 -0.21526 -0.48828
vn 0.86367 -0.07368 0.49864
vn 0 -1 0
vn 0 -0.14500 -0.98943
vn 0.84572 -0.21526 -0.48828
vn 0 -1 0
vn -0.86367 0.07368 -0.49864
vn 0 -0.14500 -0.98943
vn 0 -1 0
vn -0.84572 0.21526 0.48828
vn -0.86367 0.07368 -0.49864
vn 0 -1 0
vn 0 0.14500 0.98943
vn -0.84572 0.21526 0.48828
vn 0 -1 0
vn 0 0.14500 0.98943
vn 0.86367 -0.07368 0.49864
vn 0.86544 -0.03686 0.49966
vn 0.86093 -0.10827 -0.49706
vn 0.86544 -0.03686 0.49966
vn 0 0.07269 0.99735
vn 0.86093 -0.10827 -0.49706
vn 0 -0.07269 -0.99735
vn 0 -0.07269 -0.99735
vn -0.86544 0.03686 -0.49966
vn -0.86544 0.03686 -0.49966
vn -0.86093 0.10827 0.49706
vn -0.86093 0.10827 0.49706
vn 0 0.07269 0.99735
vn 0.86410 0.06851 0.49864
vn -0.00051 -0.08032 0.99677
vn 0.86410 0.06851 0.49864
vn 0.85709 0.14514 -0.49430
vn 0.85709 0.14514 -0.49430
vn 0.00051 0.08032 -0.99677
vn 0.00051 0.08032 -0.99677
vn -0.86411 -0.06841 -0.49864
vn -0.86411 -0.06841 -0.49864
vn -0.85709 -0.14507 0.49431
vn -0.85709 -0.14507 0.49431
vn -0.00051 -0.08032 0.99677
vn 0.87489 0.17520 0.45152
vn -0.00005 -0.00244 0.999997
vn 0.87488 0.17527 0.45152
vn 0.86591 0.01783 -0.49987
vn 0.86591 0.01783 -0.49987
vn 0.00005 0.00226 -0.999997
vn -0.86572 0.02499 -0.49991
vn 0.00005 0.00215 -0.999998
vn -0.86572 0.02499 -0.49991
vn -0.86592 -0.01720 0.49988
vn -0.86592 -0.01720 0.49988
vn -0.00005 -0.00233 0.999997
vn 0.86551 -0.03378 0.49976
vn 0.00018 0.07650 0.99707
vn 0.86551 -0.03378 0.49976
vn 0.86071 -0.10974 -0.49712
vn 0.86071 -0.10974 -0.49712
vn -0.00019 -0.07659 -0.99706
vn -0.00019 -0.07670 -0.99705
vn -0.86550 0.03401 -0.49976
vn -0.86550 0.03401 -0.49976
vn -0.86064 0.11047 0.49708
vn -0.86064 0.11047 0.49708
vn 0.00018 0.07662 0.99706
vn 0.00027 0.07648 0.99707
vn 0.98797 -0.07193 0.13688
vn 0.00654 0.68888 -0.72485
vn -0.00143 -0.17324 0.98488
vn 0.98797 -0.07193 0.13688
vn -0.00143 -0.17312 0.98490
vn -0.99634 0.08451 0.01300
vn 0.00026 0.07666 0.99706
vn -0.99634 0.08451 0.01300
vn 0.00654 0.68888 -0.72485
vn 0.00654 0.68888 -0.72485
vn 0.00057 0.07650 0.99707
vn 0.98797 -0.07193 0.13688
vn 0.98797 -0.07193 0.13688
vn -0.00230 -0.30330 0.95289
vn -0.00230 -0.30330 0.95289
vn -0.99634 0.08451 0.01300
vn 0.00654 0.68888 -0.72485
vn 0.00057 0.07650 0.99707
vn -0.99634 0.08451 0.01300
vn -0.00029 -0.07678 -0.99705
vn -0.99651 0.08263 -0.01157
vn 0.00622 0.87943 0.47599
vn -0.00041 -0.07677 -0.99705
vn -0.00519 -0.85559 -0.51763
vn -0.99651 0.08263 -0.01157
vn -0.00041 -0.07660 -0.99706
vn 0.99189 -0.08968 -0.09011
vn -0.00519 -0.85559 -0.51763
vn -0.00029 -0.07661 -0.99706
vn 0.99189 -0.08968 -0.09011
vn 0.00622 0.87943 0.47599
vn 0.00622 0.87943 0.47599
vn -0.00046 -0.07651 -0.99707
vn -0.99651 0.08263 -0.01157
vn -0.99651 0.08263 -0.01157
vn -0.00046 -0.07651 -0.99707
vn -0.00519 -0.85559 -0.51763
vn -0.00519 -0.85559 -0.51763
vn -0.00046 -0.07651 -0.99707
vn 0.99189 -0.08968 -0.09011
vn 0.00622 0.87943 0.47599
vn -0.00046 -0.07651 -0.99707
vn 0.99189 -0.08968 -0.09011
vn 0.86461 0.23218 0.44559
vn 0.84578 0.21674 -0.48753
vn 0.86462 0.23212 0.44559
vn -0.00099 -0.16003 0.98711
vn 0.84578 0.21674 -0.48753
vn 0.00099 0.16003 -0.98711
vn 0.00099 0.16003 -0.98711
vn -0.86454 -0.06044 -0.49892
vn -0.86454 -0.06044 -0.49892
vn -0.84584 -0.21641 0.48756
vn -0.84584 -0.21641 0.48756
vn -0.00099 -0.16003 0.98711
vn 0.86404 0.28085 0.41779
vn -0.40178 -0.17594 0.89868
vn 0.49649 -0.79856 0.34029
vn 0.86383 0.28108 0.41808
vn -0.47248 0.82017 -0.32263
vn -0.40178 -0.17594 0.89868
vn 0.86380 0.28118 0.41807
vn 0.47322 0.17570 -0.86325
vn -0.47248 0.82017 -0.32263
vn 0.86402 0.28095 0.41779
vn 0.47322 0.17570 -0.86325
vn 0.49649 -0.79856 0.34029
vn 0.57295 -0.72016 0.39128
vn -0.14158 -0.16866 0.97545
vn 0.57295 -0.72016 0.39128
vn 0.72508 0.16337 -0.66901
vn -0.14158 -0.16866 0.97545
vn -0.32566 0.91861 -0.22382
vn -0.32566 0.91861 -0.22382
vn 0.72508 0.16337 -0.66901
vn 0.77588 -0.34808 0.52616
vn 0.12905 -0.14896 0.98039
vn 0.82817 -0.02786 0.55979
vn -0.16549 0.97938 -0.11584
vn 0.12905 -0.14896 0.98039
vn 0.82817 -0.02786 0.55979
vn 0.90348 0.13450 -0.40699
vn -0.16549 0.97938 -0.11584
vn 0.77588 -0.34808 0.52616
vn 0.90348 0.13450 -0.40699
vn -0.99651 0.08263 -0.01157
vn 0.99189 -0.08968 -0.09011
vn 0.00654 0.68888 -0.72485
vn 0.98797 -0.07193 0.13688
vn -0.99634 0.08451 0.01300
vn 0.98797 -0.07193 0.13688
vn -0.99634 0.08451 0.01300
vn -0.99651 0.08263 -0.01157
vn 0.99189 -0.08968 -0.09011
vn 0.98797 -0.07193 0.13688
vn -0.99634 0.08451 0.01300

# No. texture coordinates 127:
vt 0 0.16667
vt 0 0.33333
vt 0 0.50000
vt 0 0.66667
vt 0 0.83333
vt 0 1
vt 0.16667 0.16667
vt 0.16667 0.33333
vt 0.16667 0.50000
vt 0.16667 0.66667
vt 0.16667 0.83333
vt 0.16667 1
vt 0.33333 0.16667
vt 0.33333 0.33333
vt 0.33333 0.50000
vt 0.33333 0.66667
vt 0.33333 0.83333
vt 0.33333 1
vt 0.50000 0.16667
vt 0.50000 0.33333
vt 0.50000 0.50000
vt 0.50000 0.66667
vt 0.50000 0.83333
vt 0.50000 1
vt 0.66667 0.16667
vt 0.66667 0.33333
vt 0.66667 0.50000
vt 0.66667 0.66667
vt 0.66667 0.83333
vt 0.66667 1
vt 0.83333 0.16667
vt 0.83333 0.33333
vt 0.83333 0.50000
vt 0.83333 0.66667
vt 0.83333 0.83333
vt 0.83333 1
vt 1 0.16667
vt 1 0.33333
vt 1 0.50000
vt 1 0.66667
vt 1 0.83333
vt 0.64586 0.38190
vt 0.58682 0.38190
vt 0.46872 0.38190
vt 0.40968 0.38190
vt 0.46872 0.38190
vt 0.58682 0.38190
vt 0.66722 0.48037
vt 0.60818 0.48037
vt 0.60818 0.48037
vt 0.49008 0.48037
vt 0.43104 0.48037
vt 0.49008 0.48037
vt 0.66722 0.55577
vt 0.60818 0.55606
vt 0.60818 0.55606
vt 0.49008 0.55665
vt 0.43104 0.55695
vt 0.49008 0.55665
vt 0.63918 0.76708
vt 0.63251 0.70433
vt 0.57347 0.70462
vt 0.58016 0.76741
vt 0.58682 0.82995
vt 0.64586 0.82995
vt 0.58016 0.76741
vt 0.57347 0.70462
vt 0.58682 0.82995
vt 0.46872 0.82995
vt 0.46211 0.76808
vt 0.40308 0.76842
vt 0.39633 0.70546
vt 0.45538 0.70518
vt 0.40968 0.82995
vt 0.46211 0.76808
vt 0.45538 0.70518
vt 0.46872 0.82995
vt 0.55217 0.75746
vt 0.48794 0.75791
vt 0.54762 0.71477
vt 0.48337 0.71515
vt 0.54554 0.84585
vt 0.49890 0.84618
vt 0.54224 0.81486
vt 0.49558 0.81513
vt 0.47405 0.76127
vt 0.56677 0.76074
vt 0.46876 0.71186
vt 0.56152 0.71142
vt 0.48541 0.84651
vt 0.55835 0.84609
vt 0.48125 0.80764
vt 0.55421 0.80729
vt 0.63819 0.64574
vt 0.57912 0.64615
vt 0.57912 0.64615
vt 0.46097 0.64696
vt 0.40190 0.64737
vt 0.46097 0.64696
vt 0.58379 0.65124
vt 0.63252 0.65090
vt 0.57913 0.69947
vt 0.62784 0.69923
vt 0.65907 0.70350
vt 0.70379 0.70319
vt 0.65479 0.74775
vt 0.69949 0.74754
vt 0.68725 0.72631
vt 0.68482 0.75145
vt 0.71020 0.75131
vt 0.71263 0.72615
vt 0.62627 0.37602
vt 0.62630 0.37556
vt 0.75006 0.46396
vt 0.75004 0.46429
vt 0.63113 0.33287
vt 0.75357 0.43296
vt 0.63113 0.33325
vt 0.75356 0.43324
vt 0.38971 0.37937
vt 0.39533 0.32996
vt 0.16184 0.42574
vt 0.15742 0.46461
vt 0.39533 0.32952
vt 0.38975 0.37885
vt 0.15745 0.46420
vt 0.16184 0.42540

# No. faces 95:
f 8/8/110 2/2/99 1/1/96 7/7/107
f 13/14/120 8/8/110 7/7/107 12/13/117
f 18/20/130 13/14/120 12/13/117 17/19/127
f 23/26/140 18/20/130 17/19/127 22/25/137
f 28/32/150 23/26/140 22/25/137 27/31/147
f 2/38/99 28/32/150 27/31/147 1/37/96
f 9/9/113 3/3/102 2/2/101 8/8/112
f 14/15/123 9/9/114 8/8/111 13/14/122
f 19/21/133 14/15/124 13/14/121 18/20/132
f 24/27/143 19/21/134 18/20/131 23/26/142
f 29/33/153 24/27/144 23/26/141 28/32/152
f 3/39/103 29/33/154 28/32/151 2/38/100
f 10/10/115 4/4/104 3/3/102 9/9/113
f 15/16/125 10/10/115 9/9/114 14/15/123
f 20/22/135 15/16/125 14/15/124 19/21/133
f 25/28/145 20/22/135 19/21/134 24/27/143
f 30/34/155 25/28/145 24/27/144 29/33/153
f 4/40/104 30/34/155 29/33/154 3/39/103
f 11/11/116 5/5/105 4/4/104 10/10/115
f 16/17/126 11/11/116 10/10/115 15/16/125
f 21/23/136 16/17/126 15/16/125 20/22/135
f 26/29/146 21/23/136 20/22/135 25/28/145
f 31/35/156 26/29/146 25/28/145 30/34/155
f 5/41/105 31/35/156 30/34/155 4/40/104
f 6/6/106 5/5/105 11/11/116
f 6/12/106 11/11/116 16/17/126
f 6/18/106 16/17/126 21/23/136
f 6/24/106 21/23/136 26/29/146
f 6/30/106 26/29/146 31/35/156
f 6/36/106 31/35/156 5/41/105
f 37/47/172 36/46/169 35/45/166 34/44/163 33/43/160 32/42/157
f 39/49/177 37/47/174 32/42/159 38/48/175
f 38/48/176 32/42/158 33/43/162 40/50/179
f 40/50/180 33/43/161 34/44/165 41/51/181
f 41/51/182 34/44/164 35/45/168 42/52/183
f 42/52/184 35/45/167 36/46/171 43/53/185
f 43/53/186 36/46/170 37/47/173 39/49/178
f 44/55/187 39/49/177 38/48/175 45/54/189
f 45/54/190 38/48/176 40/50/179 46/56/191
f 46/56/192 40/50/180 41/51/181 47/57/193
f 47/57/194 41/51/182 42/52/183 48/58/195
f 48/58/196 42/52/184 43/53/185 49/59/197
f 49/59/198 43/53/186 39/49/178 44/55/188
f 56/63/211 50/62/199 51/61/201 57/60/213
f 57/60/213 1/65/98 27/64/149 56/63/211
f 57/60/214 51/61/202 52/67/203 58/66/215
f 58/66/215 7/68/109 1/65/97 57/60/214
f 59/70/217 12/69/119 7/68/108 58/66/216
f 59/70/218 53/73/205 54/72/207 60/71/219
f 60/71/219 17/74/129 12/69/118 59/70/218
f 60/71/220 54/72/208 55/76/209 61/75/221
f 61/75/221 22/77/139 17/74/128 60/71/220
f 56/63/212 27/64/148 22/77/138 61/75/222
f 65/79/230 62/78/223 56/63/212 61/75/222
f 62/78/223 63/80/226 50/62/200 56/63/212
f 63/80/226 64/81/228 55/76/210 50/62/200
f 64/81/228 65/79/230 61/75/222 55/76/210
f 69/115/240 66/114/233 62/113/225 65/112/232
f 66/114/235 67/117/236 63/116/227 62/113/224
f 67/84/237 68/85/238 64/81/228 63/80/226
f 68/119/239 69/115/242 65/112/231 64/118/229
f 69/83/241 68/85/238 67/84/237 66/82/234
f 73/87/252 70/86/243 59/70/217 58/66/216
f 70/86/243 71/88/246 53/73/206 59/70/217
f 71/88/246 72/89/249 52/67/204 53/73/206
f 72/89/249 73/87/252 58/66/216 52/67/204
f 77/91/264 74/90/255 70/86/245 73/87/254
f 74/123/257 75/122/258 71/121/248 70/120/244
f 75/92/260 76/93/261 72/89/251 71/88/247
f 76/127/263 77/126/266 73/125/253 72/124/250
f 77/91/265 76/93/262 75/92/259 74/90/256
f 79/95/269 44/55/187 45/54/189 78/94/267
f 80/96/271 52/67/203 51/61/202 78/94/268
f 78/94/268 45/54/190 46/56/191 80/96/271
f 81/97/273 53/73/206 52/67/204 80/96/272
f 80/96/272 46/56/192 47/57/193 81/97/273
f 82/98/275 54/72/207 53/73/205 81/97/274
f 81/97/274 47/57/194 48/58/195 82/98/275
f 83/99/277 55/76/209 54/72/208 82/98/276
f 82/98/276 48/58/196 49/59/197 83/99/277
f 79/95/270 50/62/200 55/76/210 83/99/278
f 83/99/278 49/59/198 44/55/188 79/95/270
f 87/101/288 84/100/279 79/95/269 78/94/267
f 84/100/279 85/102/282 50/62/199 79/95/269
f 85/102/282 86/103/285 51/61/201 50/62/199
f 86/103/285 87/101/288 78/94/267 51/61/201
f 89/105/293 88/104/291 84/100/281 87/101/290
f 88/104/292 90/106/295 85/102/284 84/100/280
f 90/106/296 91/107/297 86/103/287 85/102/283
f 91/107/298 89/105/294 87/101/289 86/103/286
f 95/111/307 94/110/304 93/109/301 92/108/299
f 89/105/293 95/111/307 92/108/299 88/104/291
f 92/108/300 93/109/303 90/106/295 88/104/292
f 93/109/302 94/110/306 91/107/297 90/106/296
f 94/110/305 95/111/308 89/105/294 91/107/298


